<svg width="96" height="109" viewBox="0 0 96 109" fill="none" xmlns="http://www.w3.org/2000/svg">
<path d="M23.7877 21.0301C23.7877 22.1135 23.5853 23.0467 23.1807 23.8298C22.7892 24.613 22.2605 25.2786 21.5949 25.8268C20.9292 26.375 20.1591 26.8253 19.2846 27.1777C18.4232 27.5171 17.5226 27.7846 16.5828 27.9804C15.6431 28.1762 14.6968 28.3067 13.744 28.372C12.8042 28.4372 11.9232 28.4699 11.1009 28.4699C10.2917 28.4699 9.4498 28.4372 8.5753 28.372C7.71386 28.3198 6.85241 28.2219 5.99096 28.0783C5.12952 27.9347 4.28112 27.7455 3.44578 27.5105C2.61044 27.2626 1.82078 26.9558 1.07681 26.5904L1.03765 1.37349C1.76857 1.07329 2.54518 0.805723 3.36747 0.570783C4.18976 0.322791 5.0251 0.120482 5.87349 -0.0361449C6.73494 -0.205824 7.58986 -0.32982 8.43825 -0.408133C9.28665 -0.499498 10.1089 -0.545181 10.9051 -0.545181C11.8318 -0.545181 12.7651 -0.486446 13.7048 -0.368976C14.6576 -0.251506 15.5713 -0.0557232 16.4458 0.218373C17.3203 0.49247 18.136 0.851405 18.8931 1.29518C19.6501 1.7259 20.3092 2.26104 20.8705 2.9006C21.4448 3.54016 21.8886 4.28414 22.2018 5.13253C22.5281 5.98092 22.6913 6.95984 22.6913 8.06928C22.6913 8.8002 22.5868 9.48544 22.378 10.125C22.1692 10.7646 21.869 11.3389 21.4774 11.8479C21.0858 12.3569 20.6094 12.7942 20.0482 13.1596C19.4869 13.512 18.8539 13.7731 18.1491 13.9428C18.9975 14.1647 19.7676 14.491 20.4593 14.9217C21.1642 15.3524 21.758 15.8745 22.241 16.488C22.7369 17.1014 23.1155 17.7932 23.3765 18.5633C23.6506 19.3333 23.7877 20.1556 23.7877 21.0301ZM13.8419 9.87048C13.8419 9.49197 13.7636 9.17219 13.6069 8.91114C13.4503 8.63705 13.2545 8.41516 13.0196 8.24548C12.7977 8.0758 12.5497 7.95181 12.2756 7.87349C12.0146 7.79518 11.7796 7.75602 11.5708 7.75602C11.3097 7.75602 11.0552 7.79518 10.8072 7.87349C10.5592 7.95181 10.3178 8.04317 10.0828 8.14759L9.96536 12.494C10.2656 12.494 10.6376 12.4679 11.0813 12.4157C11.5251 12.3635 11.9493 12.2525 12.3539 12.0828C12.7716 11.9001 13.124 11.6391 13.4111 11.2997C13.6983 10.9473 13.8419 10.4709 13.8419 9.87048ZM11.0617 16.253C10.6832 16.253 10.3178 16.2922 9.96536 16.3705L9.88705 20.8343C10.0828 20.8735 10.2721 20.9127 10.4548 20.9518C10.6506 20.9779 10.8399 20.991 11.0226 20.991C11.2967 20.991 11.5969 20.9649 11.9232 20.9127C12.2495 20.8474 12.5562 20.7299 12.8434 20.5602C13.1305 20.3775 13.3655 20.136 13.5482 19.8358C13.744 19.5356 13.8419 19.1376 13.8419 18.6416C13.8419 18.1456 13.744 17.741 13.5482 17.4277C13.3655 17.1145 13.137 16.873 12.863 16.7033C12.5889 16.5206 12.2887 16.4031 11.9623 16.3509C11.636 16.2856 11.3358 16.253 11.0617 16.253ZM46.3027 12.1807C46.3027 13.3163 46.2244 14.4518 46.0678 15.5873C43.8358 15.7309 41.617 15.9659 39.4111 16.2922C37.2053 16.6054 34.9995 16.9187 32.7937 17.2319C33.133 18.1717 33.6616 18.9222 34.3795 19.4834C35.1104 20.0447 35.9784 20.3253 36.9834 20.3253C37.5055 20.3253 38.0733 20.2274 38.6867 20.0316C39.3133 19.8358 39.9332 19.5944 40.5467 19.3072C41.1601 19.007 41.7475 18.6872 42.3087 18.3479C42.87 18.0085 43.3529 17.7018 43.7575 17.4277L42.8178 26.3163C42.3087 26.7078 41.754 27.0407 41.1536 27.3148C40.5663 27.5889 39.9528 27.8107 39.3133 27.9804C38.6737 28.1501 38.0276 28.2741 37.375 28.3524C36.7224 28.4307 36.0828 28.4699 35.4563 28.4699C34.1642 28.4699 32.9829 28.2937 31.9127 27.9413C30.8424 27.5889 29.87 27.0994 28.9955 26.4729C28.134 25.8333 27.377 25.0828 26.7244 24.2214C26.0718 23.3599 25.5301 22.4202 25.0994 21.4021C24.6687 20.384 24.3424 19.3072 24.1205 18.1717C23.8986 17.0361 23.7877 15.8876 23.7877 14.7259C23.7877 13.512 23.8986 12.2982 24.1205 11.0843C24.3424 9.87048 24.6752 8.70231 25.119 7.57982C25.5758 6.45733 26.1436 5.41968 26.8223 4.46687C27.5141 3.501 28.3168 2.65914 29.2304 1.94126C30.1441 1.22339 31.1752 0.662148 32.3238 0.25753C33.4854 -0.147089 34.7646 -0.349398 36.1611 -0.349398C37.3228 -0.349398 38.38 -0.186245 39.3328 0.14006C40.2987 0.453313 41.1536 0.897088 41.8976 1.47139C42.6546 2.03263 43.3072 2.70482 43.8554 3.48795C44.4167 4.27108 44.8735 5.13253 45.2259 6.07229C45.5914 6.999 45.8589 7.98444 46.0286 9.02861C46.2113 10.0597 46.3027 11.1104 46.3027 12.1807ZM38.4714 11.1627C38.4714 10.7972 38.4322 10.4252 38.3539 10.0467C38.2756 9.65512 38.1451 9.30271 37.9623 8.98946C37.7927 8.6762 37.5643 8.42169 37.2771 8.2259C36.99 8.01707 36.631 7.91265 36.2003 7.91265C35.6782 7.91265 35.2149 8.05622 34.8102 8.34337C34.4187 8.61747 34.0793 8.96988 33.7922 9.4006C33.505 9.81827 33.2701 10.2751 33.0873 10.7711C32.9046 11.2671 32.7676 11.7239 32.6762 12.1416L38.4714 11.5934V11.1627ZM67.6627 17.9759C67.6627 19.7641 67.3494 21.3107 66.7229 22.616C66.1094 23.9081 65.261 24.9784 64.1777 25.8268C63.1074 26.6621 61.8479 27.2821 60.3991 27.6867C58.9634 28.0783 57.4167 28.2741 55.759 28.2741C55.1195 28.2741 54.4147 28.1893 53.6446 28.0196C52.8876 27.8499 52.1175 27.6411 51.3343 27.3931C50.5512 27.132 49.7942 26.8579 49.0633 26.5708C48.3454 26.2706 47.7058 25.99 47.1446 25.7289L48.006 18.0542C49.1155 18.7199 50.3424 19.2289 51.6867 19.5813C53.0442 19.9207 54.3755 20.0904 55.6807 20.0904C55.9287 20.0904 56.2289 20.0838 56.5813 20.0708C56.9337 20.0447 57.2666 19.9859 57.5798 19.8946C57.9061 19.7902 58.1802 19.6401 58.4021 19.4443C58.624 19.2485 58.7349 18.9679 58.7349 18.6024C58.7349 18.3544 58.6566 18.1456 58.5 17.9759C58.3434 17.7932 58.1411 17.6496 57.8931 17.5452C57.6451 17.4277 57.3645 17.3429 57.0512 17.2907C56.738 17.2254 56.4312 17.1797 56.131 17.1536C55.8308 17.1275 55.5502 17.1145 55.2892 17.1145C55.0281 17.1145 54.8193 17.1145 54.6627 17.1145C53.5402 17.1145 52.5156 16.9383 51.5889 16.5858C50.6752 16.2334 49.8855 15.7374 49.2199 15.0979C48.5673 14.4453 48.0582 13.6621 47.6928 12.7485C47.3273 11.8218 47.1446 10.7972 47.1446 9.6747C47.1446 8.13454 47.4513 6.75753 48.0648 5.54367C48.6913 4.31677 49.5201 3.27912 50.5512 2.43072C51.5954 1.56928 52.7897 0.91014 54.134 0.453313C55.4784 -0.00351435 56.8685 -0.231928 58.3042 -0.231928C58.9438 -0.231928 59.6029 -0.205824 60.2816 -0.153615C60.9603 -0.114458 61.6325 -0.0361449 62.2982 0.081325C62.9769 0.198795 63.636 0.348895 64.2756 0.531626C64.9152 0.714357 65.5221 0.942771 66.0964 1.21687L65.3524 9.16566C64.4649 8.86546 63.5316 8.61747 62.5527 8.42169C61.5868 8.21285 60.6406 8.10843 59.7139 8.10843C59.5442 8.10843 59.3223 8.11496 59.0482 8.12801C58.7871 8.12801 58.5065 8.14759 58.2063 8.18675C57.9192 8.21285 57.6255 8.25853 57.3253 8.32379C57.0251 8.38906 56.7575 8.48042 56.5226 8.59789C56.2877 8.70231 56.0984 8.84588 55.9548 9.02861C55.8112 9.21135 55.746 9.42671 55.759 9.6747C55.7721 9.96185 55.8765 10.1837 56.0723 10.3404C56.2811 10.497 56.5422 10.6145 56.8554 10.6928C57.1817 10.758 57.5341 10.7907 57.9127 10.7907C58.3042 10.7907 58.6893 10.7841 59.0678 10.7711C59.4463 10.745 59.7987 10.7254 60.125 10.7123C60.4513 10.6862 60.7189 10.6797 60.9277 10.6928C61.9719 10.758 62.9116 10.9799 63.747 11.3584C64.5823 11.7369 65.2871 12.2395 65.8614 12.866C66.4488 13.4925 66.8926 14.243 67.1928 15.1175C67.506 15.9789 67.6627 16.9317 67.6627 17.9759ZM89.1988 0.394578L89.003 8.69578L83.1687 8.93072L82.4639 27.0994L74.2018 27.5301L73.4578 9.36145L67.6235 9.6747L67.8584 0.433735L89.1988 0.394578ZM23.8072 89.9488C23.8072 91.2149 23.618 92.3373 23.2395 93.3163C22.8609 94.2952 22.3389 95.1566 21.6732 95.9006C21.0206 96.6315 20.2505 97.2515 19.363 97.7605C18.4754 98.2565 17.5226 98.6677 16.5045 98.994C15.4995 99.3072 14.4553 99.5422 13.372 99.6988C12.2887 99.8424 11.2249 99.9207 10.1807 99.9337V108.274H1.05723C1.05723 106.786 1.05723 105.337 1.05723 103.928C1.07028 102.518 1.07681 101.121 1.07681 99.738C1.08986 98.3414 1.09639 96.9383 1.09639 95.5286C1.10944 94.119 1.12249 92.6637 1.13554 91.1627C1.16165 89.5703 1.16817 87.9779 1.15512 86.3855C1.14207 84.7932 1.1747 83.1878 1.25301 81.5693C2.92369 81.0733 4.59438 80.7013 6.26506 80.4533C7.93574 80.2053 9.65863 80.0813 11.4337 80.0813C12.4388 80.0813 13.4438 80.1662 14.4488 80.3358C15.4538 80.4925 16.4132 80.747 17.3268 81.0994C18.2535 81.4518 19.1084 81.8956 19.8916 82.4307C20.6878 82.9528 21.373 83.5793 21.9473 84.3102C22.5216 85.0412 22.9719 85.8765 23.2982 86.8163C23.6376 87.756 23.8072 88.8002 23.8072 89.9488ZM15.1145 90.6145C15.1145 89.7661 14.8534 89.1069 14.3313 88.637C13.8223 88.1541 13.1566 87.9127 12.3343 87.9127C12.0602 87.9127 11.7731 87.9388 11.4729 87.991C11.1857 88.0301 10.9116 88.0823 10.6506 88.1476L10.4157 93.8645C10.5984 93.8906 10.7746 93.9036 10.9443 93.9036C11.114 93.9036 11.2902 93.9036 11.4729 93.9036C11.9428 93.9036 12.3931 93.8253 12.8238 93.6687C13.2676 93.512 13.6591 93.2902 13.9985 93.003C14.3379 92.7028 14.6054 92.3569 14.8012 91.9654C15.01 91.5607 15.1145 91.1104 15.1145 90.6145ZM42.0934 97.6235L41.2711 106.316L24.7861 107.608L25.4127 79.6506H35.5934L34.1446 97.6235H42.0934ZM67.7018 106.316L57.991 107.569L56.8163 103.145H52.3524L51.3735 107.569L41.3886 106.59L49.1807 80.512L60.0663 79.9639L67.7018 106.316ZM56.1114 97.1536L54.6235 90.3404L53.1747 97.1536H56.1114ZM92.4096 98.0934C92.4096 99.5683 92.3901 101.03 92.3509 102.479C92.3248 103.915 92.2791 105.363 92.2139 106.825L80.9367 106.63C81.3283 104.319 81.6677 102.016 81.9548 99.7184C82.242 97.4081 82.3855 95.0783 82.3855 92.7289C82.3855 92.5592 82.379 92.2851 82.366 91.9066C82.3529 91.5281 82.3268 91.1039 82.2876 90.634C82.2485 90.1511 82.1898 89.6616 82.1114 89.1657C82.0462 88.6566 81.9483 88.1933 81.8178 87.7756C81.7003 87.3579 81.5502 87.0186 81.3675 86.7575C81.1978 86.4834 80.989 86.3464 80.741 86.3464C80.2972 86.3464 79.9187 86.4769 79.6054 86.738C79.3052 86.999 79.0507 87.3384 78.8419 87.756C78.6461 88.1606 78.4895 88.6175 78.372 89.1265C78.2545 89.6355 78.1632 90.1446 78.0979 90.6536C78.0457 91.1627 78.0065 91.6456 77.9804 92.1024C77.9674 92.5462 77.9608 92.9116 77.9608 93.1988C77.8956 95.509 77.8434 97.8062 77.8042 100.09C77.7651 102.361 77.7128 104.659 77.6476 106.982L67.6626 107.413C67.9237 102.805 68.1717 98.2239 68.4066 93.6687C68.6546 89.1135 68.8504 84.5321 68.994 79.9247L78.2349 79.4548L78.1566 82.5873C78.5221 82.1436 78.9137 81.7259 79.3313 81.3343C79.762 80.9428 80.2189 80.6099 80.7018 80.3358C81.1847 80.0487 81.6938 79.8268 82.2289 79.6702C82.7771 79.5005 83.3514 79.4157 83.9518 79.4157C85.0612 79.4157 86.0336 79.5984 86.869 79.9639C87.7043 80.3293 88.4222 80.8253 89.0226 81.4518C89.623 82.0783 90.1255 82.8223 90.5301 83.6837C90.9347 84.5321 91.261 85.4393 91.509 86.4051C91.757 87.371 91.9463 88.3825 92.0768 89.4398C92.2073 90.4839 92.2922 91.5151 92.3313 92.5331C92.3835 93.5512 92.4096 94.5366 92.4096 95.4895C92.4096 96.4423 92.4096 97.3102 92.4096 98.0934Z" fill="white"/>
<path d="M21.7319 40.3946L21.5361 48.6958L15.7018 48.9307L14.997 67.0994L6.73494 67.5301L5.99096 49.3614L0.156627 49.6747L0.391566 40.4337L21.7319 40.3946ZM46.6551 53.003C46.6551 54.1908 46.5181 55.3394 46.244 56.4488C45.9699 57.5452 45.5718 58.5763 45.0497 59.5422C44.5407 60.508 43.9142 61.3956 43.1702 62.2048C42.4393 63.001 41.6104 63.6862 40.6837 64.2605C39.7701 64.8348 38.7716 65.2851 37.6883 65.6114C36.6049 65.9247 35.4563 66.0813 34.2425 66.0813C33.0678 66.0813 31.9453 65.9312 30.875 65.631C29.8178 65.3308 28.8258 64.9132 27.8991 64.378C26.9724 63.8298 26.1305 63.1772 25.3735 62.4202C24.6295 61.6501 23.99 60.8017 23.4548 59.875C22.9327 58.9352 22.5216 57.9302 22.2214 56.8599C21.9342 55.7897 21.7907 54.6737 21.7907 53.512C21.7907 52.3765 21.9277 51.2671 22.2018 50.1837C22.4759 49.0873 22.8675 48.0562 23.3765 47.0904C23.8986 46.1245 24.5251 45.2369 25.256 44.4277C25.9869 43.6185 26.8027 42.9202 27.7033 42.3328C28.617 41.7455 29.6024 41.2887 30.6596 40.9623C31.7169 40.636 32.8328 40.4729 34.0075 40.4729C35.9001 40.4729 37.623 40.7666 39.1762 41.3539C40.7425 41.9413 42.0738 42.7831 43.1702 43.8795C44.2796 44.9629 45.1345 46.2811 45.7349 47.8343C46.3484 49.3745 46.6551 51.0974 46.6551 53.003ZM37.9624 53.512C37.9624 52.9508 37.8775 52.4091 37.7078 51.887C37.5512 51.3519 37.3163 50.882 37.003 50.4774C36.6898 50.0597 36.2982 49.7269 35.8283 49.4789C35.3715 49.2179 34.8429 49.0873 34.2425 49.0873C33.629 49.0873 33.0808 49.1983 32.5979 49.4202C32.115 49.6421 31.6973 49.9488 31.3449 50.3404C31.0055 50.7189 30.7445 51.1692 30.5617 51.6913C30.379 52.2003 30.2877 52.742 30.2877 53.3163C30.2877 53.8645 30.366 54.4127 30.5226 54.9608C30.6792 55.509 30.9142 56.005 31.2274 56.4488C31.5407 56.8926 31.9257 57.2515 32.3825 57.5256C32.8524 57.7997 33.3941 57.9367 34.0075 57.9367C34.621 57.9367 35.1692 57.8193 35.6521 57.5843C36.1481 57.3363 36.5658 57.01 36.9051 56.6054C37.2445 56.1878 37.5055 55.7113 37.6883 55.1762C37.871 54.6411 37.9624 54.0863 37.9624 53.512ZM71.363 40.4337C70.7756 45.0281 70.2731 49.6029 69.8554 54.1581C69.4378 58.7003 69.0397 63.2751 68.6611 67.8825L60.634 68.4699L60.9864 65.4548C60.7254 65.755 60.4187 66.0161 60.0663 66.238C59.7269 66.4598 59.3614 66.6426 58.9699 66.7861C58.5783 66.9167 58.1737 67.0146 57.756 67.0798C57.3384 67.132 56.9403 67.1516 56.5617 67.1386C55.6742 67.1255 54.8389 66.9558 54.0557 66.6295C53.2726 66.2902 52.5547 65.8464 51.9021 65.2982C51.2495 64.7369 50.6621 64.0909 50.1401 63.3599C49.618 62.616 49.1742 61.8394 48.8087 61.0301C48.4563 60.2078 48.1822 59.3725 47.9864 58.5241C47.8037 57.6757 47.7123 56.8534 47.7123 56.0572C47.7123 54.8825 47.7319 53.6687 47.7711 52.4157C47.8233 51.1496 47.9081 49.8835 48.0256 48.6175C48.1431 47.3514 48.2932 46.0984 48.4759 44.8584C48.6717 43.6185 48.9132 42.4307 49.2003 41.2952C50.7927 41.3735 52.3916 41.4453 53.997 41.5105C55.6024 41.5758 57.2013 41.5954 58.7937 41.5693C58.4935 42.7048 58.1933 43.8469 57.8931 44.9955C57.6059 46.131 57.3449 47.2796 57.1099 48.4413C56.875 49.5899 56.6857 50.745 56.5422 51.9066C56.3986 53.0683 56.3268 54.243 56.3268 55.4307C56.3268 55.7048 56.3399 56.0964 56.366 56.6054C56.3921 57.1145 56.4573 57.617 56.5617 58.113C56.6792 58.6089 56.8489 59.0462 57.0708 59.4247C57.3057 59.7902 57.632 59.9729 58.0497 59.9729C58.5457 59.9729 58.9895 59.7641 59.381 59.3464C59.7726 58.9157 60.1185 58.3414 60.4187 57.6235C60.7189 56.9056 60.9734 56.0768 61.1822 55.137C61.4041 54.1973 61.5868 53.2184 61.7304 52.2003C61.887 51.1692 62.011 50.1315 62.1024 49.0873C62.1938 48.0432 62.259 47.0643 62.2982 46.1506C62.3504 45.2239 62.383 44.3951 62.3961 43.6642C62.4222 42.9332 62.4352 42.3655 62.4352 41.9608C62.4352 41.6998 62.4287 41.4453 62.4157 41.1973C62.4026 40.9493 62.383 40.6948 62.3569 40.4337C63.2053 40.4598 64.0472 40.4794 64.8825 40.4925C65.7179 40.5055 66.5597 40.512 67.4081 40.512C68.0607 40.512 68.7134 40.512 69.366 40.512C70.0316 40.499 70.6973 40.4729 71.363 40.4337ZM95.4834 49.1265C95.4834 50.1446 95.3921 51.0713 95.2093 51.9066C95.0397 52.7289 94.7656 53.4859 94.387 54.1777C94.0085 54.8695 93.5191 55.509 92.9187 56.0964C92.3183 56.6837 91.5939 57.245 90.7455 57.7801L95.4051 66.0813L86.5949 67.8042L83.5798 59.4639L81.1521 59.5422L80.7997 67.6867H72.381C72.4463 64.7108 72.505 61.748 72.5572 58.7982C72.6225 55.8484 72.6943 52.8855 72.7726 49.9096C72.7987 48.4086 72.8248 46.9207 72.8509 45.4458C72.877 43.9709 72.9292 42.4829 73.0075 40.9819C73.9212 40.6426 74.8218 40.3619 75.7093 40.1401C76.5969 39.9182 77.4844 39.7485 78.372 39.631C79.2726 39.5005 80.1797 39.4157 81.0934 39.3765C82.0201 39.3243 82.9664 39.2982 83.9322 39.2982C85.4202 39.2982 86.8559 39.507 88.2395 39.9247C89.636 40.3293 90.8695 40.9428 91.9398 41.7651C93.01 42.5873 93.865 43.6119 94.5045 44.8389C95.1571 46.0658 95.4834 47.495 95.4834 49.1265ZM86.7123 49.753C86.7123 49.2048 86.634 48.7023 86.4774 48.2455C86.3338 47.7887 86.1119 47.3971 85.8117 47.0708C85.5246 46.7314 85.1591 46.4704 84.7154 46.2877C84.2846 46.0919 83.7756 45.994 83.1883 45.994C82.9272 45.994 82.6727 46.0136 82.4247 46.0527C82.1767 46.0788 81.9352 46.1245 81.7003 46.1898L81.387 53.4729H81.8569C82.4182 53.4729 82.9859 53.4011 83.5602 53.2575C84.1476 53.114 84.6697 52.8921 85.1265 52.5919C85.5964 52.2917 85.9749 51.9066 86.262 51.4367C86.5622 50.9669 86.7123 50.4056 86.7123 49.753Z" fill="#EC1F46"/>
</svg>
